<svg viewBox="0 0 700 500" xmlns="http://www.w3.org/2000/svg">
  <!-- Title -->
  <text x="350" y="30" text-anchor="middle" font-family="Arial, sans-serif" font-size="18" font-weight="bold">Four Types of Constraints in ML Systems</text>
  
  <!-- Axis labels -->
  <text x="350" y="60" text-anchor="middle" font-size="13" fill="#666">CONSTRAINT NATURE</text>
  <text x="30" y="270" text-anchor="middle" font-size="13" fill="#666" transform="rotate(-90 30 270)">CONSTRAINT TYPE</text>
  
  <!-- Axis lines -->
  <line x1="100" y1="100" x2="100" y2="450" stroke="#999" stroke-width="2"/>
  <line x1="100" y1="275" x2="500" y2="275" stroke="#999" stroke-width="2"/>
  
  <!-- Axis labels for quadrants -->
  <text x="200" y="90" text-anchor="middle" font-size="14" font-weight="bold" fill="#333">Technical</text>
  <text x="400" y="90" text-anchor="middle" font-size="14" font-weight="bold" fill="#333">Organizational</text>
  <text x="70" y="190" text-anchor="middle" font-size="14" font-weight="bold" fill="#333">Resource</text>
  <text x="70" y="365" text-anchor="middle" font-size="14" font-weight="bold" fill="#333">Process</text>
  
  <!-- Quadrant 1: Technical/Resource -->
  <rect x="105" y="105" width="190" height="165" fill="#E3F2FD" stroke="#1976D2" stroke-width="1" rx="5"/>
  <text x="200" y="130" text-anchor="middle" font-size="13" font-weight="bold" fill="#1565C0">Technical / Resource</text>
  
  <g transform="translate(115, 150)">
    <circle cx="5" cy="5" r="3" fill="#1976D2"/>
    <text x="12" y="8" font-size="11" fill="#333">GPU memory limits</text>
  </g>
  
  <g transform="translate(115, 170)">
    <circle cx="5" cy="5" r="3" fill="#1976D2"/>
    <text x="12" y="8" font-size="11" fill="#333">Network bandwidth</text>
  </g>
  
  <g transform="translate(115, 190)">
    <circle cx="5" cy="5" r="3" fill="#1976D2"/>
    <text x="12" y="8" font-size="11" fill="#333">CPU cores</text>
  </g>
  
  <g transform="translate(115, 210)">
    <circle cx="5" cy="5" r="3" fill="#1976D2"/>
    <text x="12" y="8" font-size="11" fill="#333">Storage capacity</text>
  </g>
  
  <g transform="translate(115, 230)">
    <circle cx="5" cy="5" r="3" fill="#1976D2"/>
    <text x="12" y="8" font-size="11" fill="#333">Memory (RAM)</text>
  </g>
  
  <g transform="translate(115, 250)">
    <circle cx="5" cy="5" r="3" fill="#1976D2"/>
    <text x="12" y="8" font-size="11" fill="#333">Network tap capacity</text>
  </g>
  
  <!-- Quadrant 2: Organizational/Resource -->
  <rect x="305" y="105" width="190" height="165" fill="#FFF3E0" stroke="#F57C00" stroke-width="1" rx="5"/>
  <text x="400" y="130" text-anchor="middle" font-size="13" font-weight="bold" fill="#E65100">Organizational / Resource</text>
  
  <g transform="translate(315, 150)">
    <circle cx="5" cy="5" r="3" fill="#F57C00"/>
    <text x="12" y="8" font-size="11" fill="#333">Domain expertise</text>
  </g>
  
  <g transform="translate(315, 170)">
    <circle cx="5" cy="5" r="3" fill="#F57C00"/>
    <text x="12" y="8" font-size="11" fill="#333">Labeled data availability</text>
  </g>
  
  <g transform="translate(315, 190)">
    <circle cx="5" cy="5" r="3" fill="#F57C00"/>
    <text x="12" y="8" font-size="11" fill="#333">ML engineer headcount</text>
  </g>
  
  <g transform="translate(315, 210)">
    <circle cx="5" cy="5" r="3" fill="#F57C00"/>
    <text x="12" y="8" font-size="11" fill="#333">Analyst capacity</text>
  </g>
  
  <g transform="translate(315, 230)">
    <circle cx="5" cy="5" r="3" fill="#F57C00"/>
    <text x="12" y="8" font-size="11" fill="#333">Budget for tools</text>
  </g>
  
  <g transform="translate(315, 250)">
    <circle cx="5" cy="5" r="3" fill="#F57C00"/>
    <text x="12" y="8" font-size="11" fill="#333">Training time available</text>
  </g>
  
  <!-- Quadrant 3: Technical/Process -->
  <rect x="105" y="280" width="190" height="165" fill="#E8F5E9" stroke="#4CAF50" stroke-width="1" rx="5"/>
  <text x="200" y="305" text-anchor="middle" font-size="13" font-weight="bold" fill="#2E7D32">Technical / Process</text>
  
  <g transform="translate(115, 325)">
    <circle cx="5" cy="5" r="3" fill="#4CAF50"/>
    <text x="12" y="8" font-size="11" fill="#333">Feature computation</text>
  </g>
  
  <g transform="translate(115, 345)">
    <circle cx="5" cy="5" r="3" fill="#4CAF50"/>
    <text x="12" y="8" font-size="11" fill="#333">Model serving latency</text>
  </g>
  
  <g transform="translate(115, 365)">
    <circle cx="5" cy="5" r="3" fill="#4CAF50"/>
    <text x="12" y="8" font-size="11" fill="#333">Data pipeline efficiency</text>
  </g>
  
  <g transform="translate(115, 385)">
    <circle cx="5" cy="5" r="3" fill="#4CAF50"/>
    <text x="12" y="8" font-size="11" fill="#333">Batch processing speed</text>
  </g>
  
  <g transform="translate(115, 405)">
    <circle cx="5" cy="5" r="3" fill="#4CAF50"/>
    <text x="12" y="8" font-size="11" fill="#333">Algorithm complexity</text>
  </g>
  
  <g transform="translate(115, 425)">
    <circle cx="5" cy="5" r="3" fill="#4CAF50"/>
    <text x="12" y="8" font-size="11" fill="#333">Caching strategies</text>
  </g>
  
  <!-- Quadrant 4: Organizational/Process -->
  <rect x="305" y="280" width="190" height="165" fill="#FCE4EC" stroke="#E91E63" stroke-width="1" rx="5"/>
  <text x="400" y="305" text-anchor="middle" font-size="13" font-weight="bold" fill="#AD1457">Organizational / Process</text>
  
  <g transform="translate(315, 325)">
    <circle cx="5" cy="5" r="3" fill="#E91E63"/>
    <text x="12" y="8" font-size="11" fill="#333">Deployment approval</text>
  </g>
  
  <g transform="translate(315, 345)">
    <circle cx="5" cy="5" r="3" fill="#E91E63"/>
    <text x="12" y="8" font-size="11" fill="#333">Cross-team coordination</text>
  </g>
  
  <g transform="translate(315, 365)">
    <circle cx="5" cy="5" r="3" fill="#E91E63"/>
    <text x="12" y="8" font-size="11" fill="#333">Model review process</text>
  </g>
  
  <g transform="translate(315, 385)">
    <circle cx="5" cy="5" r="3" fill="#E91E63"/>
    <text x="12" y="8" font-size="11" fill="#333">Incident escalation</text>
  </g>
  
  <g transform="translate(315, 405)">
    <circle cx="5" cy="5" r="3" fill="#E91E63"/>
    <text x="12" y="8" font-size="11" fill="#333">Data access policies</text>
  </g>
  
  <g transform="translate(315, 425)">
    <circle cx="5" cy="5" r="3" fill="#E91E63"/>
    <text x="12" y="8" font-size="11" fill="#333">Change management</text>
  </g>
  
  <!-- Solution approach indicators -->
  <text x="200" y="470" text-anchor="middle" font-size="10" fill="#666" font-style="italic">Solution: Infrastructure</text>
  <text x="400" y="470" text-anchor="middle" font-size="10" fill="#666" font-style="italic">Solution: Hiring/Training</text>
  <text x="200" y="485" text-anchor="middle" font-size="10" fill="#666" font-style="italic">or Optimization</text>
  <text x="400" y="485" text-anchor="middle" font-size="10" fill="#666" font-style="italic">or Process Change</text>
</svg>
