<svg viewBox="0 0 800 400" xmlns="http://www.w3.org/2000/svg">
  <!-- Title -->
  <text x="400" y="30" text-anchor="middle" font-family="Arial, sans-serif" font-size="18" font-weight="bold">Six-Month Transformation Journey: From Crisis to Success</text>
  
  <!-- Main timeline arrow -->
  <line x1="80" y1="200" x2="720" y2="200" stroke="#333" stroke-width="3"/>
  <polygon points="720,195 730,200 720,205" fill="#333"/>
  
  <!-- Month markers -->
  <!-- Month 0 -->
  <circle cx="100" cy="200" r="8" fill="#F44336"/>
  <line x1="100" y1="200" x2="100" y2="160" stroke="#333" stroke-width="2"/>
  
  <!-- Month 1 -->
  <circle cx="200" cy="200" r="8" fill="#FF9800"/>
  <line x1="200" y1="200" x2="200" y2="240" stroke="#333" stroke-width="2"/>
  
  <!-- Month 2 -->
  <circle cx="300" cy="200" r="8" fill="#FFC107"/>
  <line x1="300" y1="200" x2="300" y2="160" stroke="#333" stroke-width="2"/>
  
  <!-- Month 3 -->
  <circle cx="400" cy="200" r="8" fill="#8BC34A"/>
  <line x1="400" y1="200" x2="400" y2="240" stroke="#333" stroke-width="2"/>
  
  <!-- Month 4 -->
  <circle cx="500" cy="200" r="8" fill="#4CAF50"/>
  <line x1="500" y1="200" x2="500" y2="160" stroke="#333" stroke-width="2"/>
  
  <!-- Month 5 -->
  <circle cx="600" cy="200" r="8" fill="#00BCD4"/>
  <line x1="600" y1="200" x2="600" y2="240" stroke="#333" stroke-width="2"/>
  
  <!-- Month 6 -->
  <circle cx="700" cy="200" r="8" fill="#2196F3"/>
  <line x1="700" y1="200" x2="700" y2="160" stroke="#333" stroke-width="2"/>
  
  <!-- Month labels and descriptions -->
  <!-- Month 0 -->
  <g transform="translate(100, 140)">
    <rect x="-60" y="-35" width="120" height="50" fill="#FFEBEE" stroke="#F44336" stroke-width="1" rx="5"/>
    <text x="0" y="-15" text-anchor="middle" font-size="12" font-weight="bold" fill="#C62828">Month 0</text>
    <text x="0" y="0" text-anchor="middle" font-size="10" fill="#333">Crisis Recognition</text>
    <text x="0" y="13" text-anchor="middle" font-size="9" fill="#666" font-style="italic">"Everything is broken"</text>
  </g>
  
  <!-- Month 1 -->
  <g transform="translate(200, 260)">
    <rect x="-70" y="-35" width="140" height="50" fill="#FFF3E0" stroke="#FF9800" stroke-width="1" rx="5"/>
    <text x="0" y="-15" text-anchor="middle" font-size="12" font-weight="bold" fill="#E65100">Month 1</text>
    <text x="0" y="0" text-anchor="middle" font-size="10" fill="#333">Goal Setting &amp;</text>
    <text x="0" y="13" text-anchor="middle" font-size="10" fill="#333">Constraint ID</text>
  </g>
  
  <!-- Month 2 -->
  <g transform="translate(300, 140)">
    <rect x="-70" y="-35" width="140" height="50" fill="#FFF9C4" stroke="#FFC107" stroke-width="1" rx="5"/>
    <text x="0" y="-15" text-anchor="middle" font-size="12" font-weight="bold" fill="#F57C00">Month 2</text>
    <text x="0" y="0" text-anchor="middle" font-size="10" fill="#333">Root Cause Analysis</text>
    <text x="0" y="13" text-anchor="middle" font-size="9" fill="#666">via Five Whys</text>
  </g>
  
  <!-- Month 3 -->
  <g transform="translate(400, 260)">
    <rect x="-70" y="-35" width="140" height="50" fill="#F1F8E9" stroke="#8BC34A" stroke-width="1" rx="5"/>
    <text x="0" y="-15" text-anchor="middle" font-size="12" font-weight="bold" fill="#689F38">Month 3</text>
    <text x="0" y="0" text-anchor="middle" font-size="10" fill="#333">Conflict Mapping &amp;</text>
    <text x="0" y="13" text-anchor="middle" font-size="10" fill="#333">Innovation Design</text>
  </g>
  
  <!-- Month 4 -->
  <g transform="translate(500, 140)">
    <rect x="-70" y="-35" width="140" height="50" fill="#E8F5E9" stroke="#4CAF50" stroke-width="1" rx="5"/>
    <text x="0" y="-15" text-anchor="middle" font-size="12" font-weight="bold" fill="#2E7D32">Month 4</text>
    <text x="0" y="0" text-anchor="middle" font-size="10" fill="#333">MVE Execution</text>
    <text x="0" y="13" text-anchor="middle" font-size="10" fill="#333">&amp; Iteration</text>
  </g>
  
  <!-- Month 5 -->
  <g transform="translate(600, 260)">
    <rect x="-70" y="-35" width="140" height="50" fill="#E0F7FA" stroke="#00BCD4" stroke-width="1" rx="5"/>
    <text x="0" y="-15" text-anchor="middle" font-size="12" font-weight="bold" fill="#006064">Month 5</text>
    <text x="0" y="0" text-anchor="middle" font-size="10" fill="#333">Phased Production</text>
    <text x="0" y="13" text-anchor="middle" font-size="10" fill="#333">Rollout</text>
  </g>
  
  <!-- Month 6 -->
  <g transform="translate(700, 140)">
    <rect x="-70" y="-35" width="140" height="60" fill="#E3F2FD" stroke="#2196F3" stroke-width="1" rx="5"/>
    <text x="0" y="-20" text-anchor="middle" font-size="12" font-weight="bold" fill="#1565C0">Month 6</text>
    <text x="0" y="-5" text-anchor="middle" font-size="10" fill="#333">Full Production</text>
    <text x="0" y="8" text-anchor="middle" font-size="10" fill="#333">&amp; Benefits</text>
    <text x="0" y="21" text-anchor="middle" font-size="10" fill="#333">Realization</text>
  </g>
  
  <!-- Progress indicators -->
  <text x="100" y="230" text-anchor="middle" font-size="10" fill="#F44336" font-weight="bold">Diagnosis</text>
  <text x="300" y="230" text-anchor="middle" font-size="10" fill="#FF9800" font-weight="bold">Understanding</text>
  <text x="450" y="230" text-anchor="middle" font-size="10" fill="#4CAF50" font-weight="bold">Solution</text>
  <text x="650" y="230" text-anchor="middle" font-size="10" fill="#2196F3" font-weight="bold">Deployment</text>
  
  <!-- Key metrics at bottom -->
  <rect x="100" y="320" width="600" height="60" fill="#F5F5F5" stroke="#999" stroke-width="1" rx="5"/>
  
  <g transform="translate(150, 340)">
    <text x="0" y="0" font-size="11" font-weight="bold" fill="#333">Start:</text>
    <text x="0" y="15" font-size="10" fill="#666">47% detection</text>
    <text x="0" y="28" font-size="10" fill="#666">89 alerts/day</text>
  </g>
  
  <g transform="translate(300, 340)">
    <text x="0" y="0" font-size="11" font-weight="bold" fill="#333">Midpoint:</text>
    <text x="0" y="15" font-size="10" fill="#666">Testing solution</text>
    <text x="0" y="28" font-size="10" fill="#666">MVE validation</text>
  </g>
  
  <g transform="translate(450, 340)">
    <text x="0" y="0" font-size="11" font-weight="bold" fill="#333">Rollout:</text>
    <text x="0" y="15" font-size="10" fill="#666">Shadow mode</text>
    <text x="0" y="28" font-size="10" fill="#666">10%→100%</text>
  </g>
  
  <g transform="translate(580, 340)">
    <text x="0" y="0" font-size="11" font-weight="bold" fill="#4CAF50">Final:</text>
    <text x="0" y="15" font-size="10" fill="#4CAF50">96% detection</text>
    <text x="0" y="28" font-size="10" fill="#4CAF50">8 alerts/day</text>
  </g>
</svg>
