<svg viewBox="0 0 800 600" xmlns="http://www.w3.org/2000/svg">
  <defs>
    <!-- Artistic gradients -->
    <linearGradient id="bgGradient" x1="0%" y1="0%" x2="100%" y2="100%">
      <stop offset="0%" style="stop-color:#2c1810;stop-opacity:1" />
      <stop offset="30%" style="stop-color:#8b4513;stop-opacity:1" />
      <stop offset="70%" style="stop-color:#daa520;stop-opacity:1" />
      <stop offset="100%" style="stop-color:#ffd700;stop-opacity:1" />
    </linearGradient>
    
    <linearGradient id="brainGradient" x1="0%" y1="0%" x2="100%" y2="100%">
      <stop offset="0%" style="stop-color:#ff6b6b;stop-opacity:0.9" />
      <stop offset="50%" style="stop-color:#ff8e53;stop-opacity:0.8" />
      <stop offset="100%" style="stop-color:#ffbe0b;stop-opacity:0.7" />
    </linearGradient>
    
    <linearGradient id="progressGradient" x1="0%" y1="0%" x2="100%" y2="0%">
      <stop offset="0%" style="stop-color:#e74c3c;stop-opacity:0.8" />
      <stop offset="50%" style="stop-color:#f39c12;stop-opacity:0.8" />
      <stop offset="100%" style="stop-color:#2ecc71;stop-opacity:0.9" />
    </linearGradient>
    
    <linearGradient id="optimizedGradient" x1="0%" y1="0%" x2="100%" y2="100%">
      <stop offset="0%" style="stop-color:#e67e22;stop-opacity:0.9" />
      <stop offset="100%" style="stop-color:#f1c40f;stop-opacity:0.8" />
    </linearGradient>
    
    <linearGradient id="bookGradient" x1="0%" y1="0%" x2="100%" y2="100%">
      <stop offset="0%" style="stop-color:#8e44ad;stop-opacity:0.8" />
      <stop offset="100%" style="stop-color:#3498db;stop-opacity:0.6" />
    </linearGradient>
    
    <!-- Paint splatter effects -->
    <filter id="paintSplatter">
      <feTurbulence baseFrequency="0.04" numOctaves="4" result="noise"/>
      <feColorMatrix in="noise" type="saturate" values="0"/>
      <feComponentTransfer>
        <feFuncA type="discrete" tableValues="0 0.5 0.5 0.7 0.7 0.8 0.8 0.9 0.9 1"/>
      </feComponentTransfer>
      <feComposite in2="SourceGraphic" operator="multiply"/>
    </filter>
    
    <!-- Watercolor effect -->
    <filter id="watercolor">
      <feTurbulence baseFrequency="0.04" numOctaves="3" result="noise"/>
      <feColorMatrix in="noise" type="saturate" values="0"/>
      <feComponentTransfer>
        <feFuncA type="discrete" tableValues="0 0.3 0.3 0.6 0.6 0.8"/>
      </feComponentTransfer>
      <feComposite in2="SourceGraphic" operator="multiply"/>
    </filter>
    
    <!-- Artistic glow -->
    <filter id="artisticGlow">
      <feGaussianBlur stdDeviation="4" result="coloredBlur"/>
      <feMerge> 
        <feMergeNode in="coloredBlur"/>
        <feMergeNode in="SourceGraphic"/>
      </feMerge>
    </filter>
  </defs>
  
  <!-- Canvas background -->
  <rect width="800" height="600" fill="url(#bgGradient)"/>
  
  <!-- Paint texture overlay -->
  <rect width="800" height="600" fill="#f4f4f4" opacity="0.1" filter="url(#paintSplatter)"/>
  
  <!-- Artist's books around the edges -->
  <g transform="translate(80,80)">
    <!-- Sketchbook 1 -->
    <rect x="0" y="0" width="45" height="55" fill="url(#bookGradient)" rx="3" filter="url(#watercolor)"/>
    <rect x="3" y="3" width="39" height="49" fill="none" stroke="#2c3e50" stroke-width="2" opacity="0.7"/>
    <path d="M 8,12 Q 15,10 25,12 Q 35,14 38,12" stroke="#2c3e50" stroke-width="2" opacity="0.8" fill="none"/>
    <path d="M 8,18 Q 20,16 30,18 Q 40,20 38,18" stroke="#2c3e50" stroke-width="2" opacity="0.6" fill="none"/>
    <path d="M 8,24 Q 18,22 28,24 Q 38,26 35,24" stroke="#2c3e50" stroke-width="2" opacity="0.6" fill="none"/>
    
    <!-- Paint brush -->
    <rect x="48" y="10" width="3" height="35" fill="#8b4513" opacity="0.8"/>
    <rect x="47" y="8" width="5" height="8" fill="#2c3e50" opacity="0.8"/>
    <polygon points="48,8 51,8 49.5,0" fill="#e74c3c" opacity="0.9"/>
  </g>
  
  <g transform="translate(670,80)">
    <!-- Art journal -->
    <rect x="0" y="0" width="45" height="55" fill="url(#bookGradient)" rx="3" filter="url(#watercolor)"/>
    <rect x="3" y="3" width="39" height="49" fill="none" stroke="#9b59b6" stroke-width="2" opacity="0.7"/>
    <circle cx="22" cy="20" r="8" fill="none" stroke="#9b59b6" stroke-width="2" opacity="0.8"/>
    <path d="M 8,35 Q 15,30 22,35 Q 29,40 36,35" stroke="#9b59b6" stroke-width="2" opacity="0.6" fill="none"/>
    
    <!-- Pencil -->
    <rect x="48" y="15" width="3" height="25" fill="#f1c40f" opacity="0.8"/>
    <polygon points="48,15 51,15 49.5,10" fill="#2c3e50" opacity="0.8"/>
    <rect x="47" y="38" width="5" height="4" fill="#e67e22" opacity="0.8"/>
  </g>
  
  <g transform="translate(80,470)">
    <!-- Watercolor pad -->
    <rect x="0" y="0" width="45" height="55" fill="url(#bookGradient)" rx="3" filter="url(#watercolor)"/>
    <rect x="3" y="3" width="39" height="49" fill="none" stroke="#3498db" stroke-width="2" opacity="0.7"/>
    <circle cx="15" cy="25" r="5" fill="#e74c3c" opacity="0.6"/>
    <circle cx="28" cy="22" r="4" fill="#f39c12" opacity="0.6"/>
    <circle cx="22" cy="35" r="6" fill="#2ecc71" opacity="0.6"/>
  </g>
  
  <g transform="translate(670,470)">
    <!-- Inspiration journal -->
    <rect x="0" y="0" width="45" height="55" fill="url(#bookGradient)" rx="3" filter="url(#watercolor)"/>
    <rect x="3" y="3" width="39" height="49" fill="none" stroke="#e67e22" stroke-width="2" opacity="0.7"/>
    <polygon points="15,15 25,20 30,15 25,25 20,20" fill="none" stroke="#e67e22" stroke-width="2" opacity="0.8"/>
    <path d="M 8,35 C 15,30 25,40 35,35" stroke="#e67e22" stroke-width="2" opacity="0.6" fill="none"/>
  </g>
  
  <!-- Creative tools -->
  <g transform="translate(150,100)">
    <!-- Artist brush -->
    <rect x="0" y="0" width="4" height="35" fill="#8b4513" filter="url(#artisticGlow)"/>
    <rect x="-1" y="0" width="6" height="10" fill="#2c3e50" opacity="0.8"/>
    <polygon points="0,0 4,0 2,-10" fill="#e74c3c" opacity="0.9"/>
    
    <!-- Paint stroke -->
    <path d="M 10,8 Q 20,5 35,8 Q 45,12 50,8" stroke="#e74c3c" stroke-width="4" opacity="0.8" fill="none"/>
    <path d="M 10,15 Q 25,12 40,15 Q 50,18 55,15" stroke="#f39c12" stroke-width="3" opacity="0.7" fill="none"/>
    <path d="M 10,22 Q 20,19 30,22 Q 40,25 45,22" stroke="#2ecc71" stroke-width="3" opacity="0.6" fill="none"/>
  </g>
  
  <g transform="translate(580,100)">
    <!-- Color palette -->
    <ellipse cx="20" cy="25" rx="25" ry="20" fill="#f8f9fa" opacity="0.9" filter="url(#artisticGlow)"/>
    <circle cx="10" cy="20" r="4" fill="#e74c3c" opacity="0.9"/>
    <circle cx="20" cy="15" r="4" fill="#f39c12" opacity="0.9"/>
    <circle cx="30" cy="20" r="4" fill="#2ecc71" opacity="0.9"/>
    <circle cx="15" cy="30" r="4" fill="#3498db" opacity="0.9"/>
    <circle cx="25" cy="30" r="4" fill="#9b59b6" opacity="0.9"/>
  </g>
  
  <!-- Progress canvas -->
  <g transform="translate(100,520)">
    <!-- Canvas background -->
    <rect x="0" y="0" width="600" height="15" fill="#f8f9fa" opacity="0.9" rx="5"/>
    <rect x="2" y="2" width="596" height="11" fill="#ecf0f1" opacity="0.5" rx="3"/>
    
    <!-- Progress paint stroke -->
    <path d="M 0,7.5 Q 150,5 300,7.5 Q 450,10 450,7.5" stroke="url(#progressGradient)" stroke-width="8" fill="none" opacity="0.9"/>
    
    <!-- Paint drops/milestones -->
    <circle cx="120" cy="7.5" r="6" fill="#e74c3c" opacity="0.8" filter="url(#artisticGlow)"/>
    <circle cx="280" cy="7.5" r="6" fill="#f39c12" opacity="0.8" filter="url(#artisticGlow)"/>
    <circle cx="420" cy="7.5" r="6" fill="#2ecc71" opacity="0.8" filter="url(#artisticGlow)"/>
    <circle cx="550" cy="7.5" r="8" fill="#27ae60" opacity="0.9" filter="url(#artisticGlow)"/>
  </g>
  
  <!-- Person studying - Enhanced and artistic -->
  <g transform="translate(200,250)">
    <!-- Artist's easel/desk -->
    <rect x="-40" y="40" width="80" height="12" fill="#8b4513" opacity="0.9" filter="url(#artisticGlow)"/>
    <rect x="-40" y="52" width="80" height="4" fill="#654321" opacity="0.7"/>
    
    <!-- Head with artistic style -->
    <circle cx="0" cy="0" r="20" fill="#fdbcb4" opacity="0.9" filter="url(#artisticGlow)"/>
    <!-- Artistic hair -->
    <path d="M -18,-10 Q -20,-18 -10,-22 Q 0,-24 10,-22 Q 20,-18 18,-10" fill="#8b4513" opacity="0.8" filter="url(#watercolor)"/>
    <!-- Expressive eyes -->
    <circle cx="-6" cy="-4" r="3" fill="#2c3e50" opacity="0.8"/>
    <circle cx="6" cy="-4" r="3" fill="#2c3e50" opacity="0.8"/>
    <circle cx="-6" cy="-4" r="1" fill="#f8f9fa" opacity="0.9"/>
    <circle cx="6" cy="-4" r="1" fill="#f8f9fa" opacity="0.9"/>
    <!-- Focused expression -->
    <path d="M -4,6 Q 0,8 4,6" stroke="#2c3e50" stroke-width="2" fill="none" opacity="0.7"/>
    
    <!-- Body - artistic clothing -->
    <rect x="-12" y="15" width="24" height="35" fill="#e67e22" opacity="0.8" rx="4" filter="url(#artisticGlow)"/>
    <rect x="-10" y="17" width="20" height="31" fill="#f39c12" opacity="0.6" rx="3"/>
    
    <!-- Arms in creative pose -->
    <rect x="-22" y="22" width="12" height="20" fill="#e67e22" opacity="0.8" rx="4"/>
    <rect x="10" y="22" width="12" height="20" fill="#e67e22" opacity="0.8" rx="4"/>
    <!-- Hands -->
    <circle cx="-16" cy="42" r="5" fill="#fdbcb4" opacity="0.8"/>
    <circle cx="16" cy="42" r="5" fill="#fdbcb4" opacity="0.8"/>
    
    <!-- Creative learning materials -->
    <!-- Sketchbook -->
    <rect x="-25" y="25" width="30" height="25" fill="url(#bookGradient)" opacity="0.95" filter="url(#artisticGlow)"/>
    <rect x="-23" y="27" width="26" height="21" fill="none" stroke="#2c3e50" stroke-width="2" opacity="0.8"/>
    <path d="M -20,32 Q -10,30 0,32 Q 10,34 20,32" stroke="#2c3e50" stroke-width="2" opacity="0.9" fill="none"/>
    <path d="M -20,37 Q -5,35 5,37 Q 15,39 20,37" stroke="#2c3e50" stroke-width="2" opacity="0.7" fill="none"/>
    <circle cx="-10" cy="42" r="3" fill="#e74c3c" opacity="0.8"/>
    <circle cx="5" cy="40" r="2" fill="#f39c12" opacity="0.8"/>
    
    <!-- Art journal -->
    <rect x="8" y="28" width="25" height="28" fill="#34495e" opacity="0.9" filter="url(#artisticGlow)"/>
    <rect x="10" y="30" width="21" height="24" fill="none" stroke="#e67e22" stroke-width="2" opacity="0.8"/>
    <path d="M 12,35 Q 16,33 20,35 Q 24,37 28,35" stroke="#e67e22" stroke-width="2" opacity="0.9" fill="none"/>
    <path d="M 12,40 Q 18,38 24,40 Q 28,42 28,40" stroke="#e67e22" stroke-width="2" opacity="0.7" fill="none"/>
    <path d="M 12,45 Q 20,43 26,45 Q 30,47 28,45" stroke="#e67e22" stroke-width="2" opacity="0.7" fill="none"/>
    
    <!-- Creative pen/brush -->
    <rect x="13" y="18" width="4" height="18" fill="#8b4513" opacity="0.9" filter="url(#artisticGlow)"/>
    <rect x="13" y="16" width="4" height="5" fill="#2c3e50" opacity="0.9"/>
    <polygon points="13,16 17,16 15,10" fill="#e74c3c" opacity="0.9"/>
    
    <!-- Art supplies -->
    <rect x="-35" y="35" width="10" height="12" fill="#9b59b6" opacity="0.8" rx="2"/>
    <rect x="-37" y="33" width="10" height="12" fill="#3498db" opacity="0.8" rx="2"/>
    
    <!-- Creative coffee mug -->
    <rect x="30" y="38" width="10" height="10" fill="#e67e22" opacity="0.8" rx="2"/>
    <rect x="31" y="39" width="8" height="8" fill="#d35400" opacity="0.6"/>
    <rect x="40" y="40" width="4" height="3" fill="#e67e22" opacity="0.8"/>
    <circle cx="35" cy="35" r="2" fill="#f8f9fa" opacity="0.6"/>
    
    <!-- Inspiration/creativity aura -->
    <g stroke="#f39c12" stroke-width="3" fill="none" opacity="0.8">
      <path d="M -10,-30 Q 0,-40 10,-30" filter="url(#artisticGlow)"/>
      <path d="M -15,-28 Q 0,-42 15,-28" filter="url(#artisticGlow)"/>
      <path d="M -8,-32 Q 0,-38 8,-32" filter="url(#artisticGlow)"/>
    </g>
    
    <!-- Creative energy particles -->
    <g opacity="0.8">
      <circle cx="-10" cy="-35" r="3" fill="#e74c3c" filter="url(#artisticGlow)"/>
      <circle cx="10" cy="-35" r="3" fill="#f39c12" filter="url(#artisticGlow)"/>
      <circle cx="0" cy="-42" r="3" fill="#2ecc71" filter="url(#artisticGlow)"/>
      <circle cx="-6" cy="-38" r="2" fill="#3498db" filter="url(#artisticGlow)"/>
      <circle cx="6" cy="-38" r="2" fill="#9b59b6" filter="url(#artisticGlow)"/>
    </g>
    
    <!-- Creative knowledge flow -->
    <g opacity="0.7">
      <circle cx="-10" cy="20" r="3" fill="#e74c3c" filter="url(#artisticGlow)"/>
      <circle cx="-6" cy="15" r="2" fill="#f39c12" filter="url(#artisticGlow)"/>
      <circle cx="-2" cy="10" r="2" fill="#2ecc71" filter="url(#artisticGlow)"/>
      <circle cx="2" cy="5" r="2" fill="#3498db" filter="url(#artisticGlow)"/>
    </g>
    
    <!-- Creative efficiency aura -->
    <circle cx="0" cy="25" r="50" fill="none" stroke="#f39c12" stroke-width="3" opacity="0.4" stroke-dasharray="15 10" filter="url(#artisticGlow)"/>
  </g>
  
  <!-- Central creative learning system -->
  <g transform="translate(400,280)">
    
    <!-- Creative brain core -->
    <circle cx="0" cy="0" r="55" fill="url(#brainGradient)" filter="url(#artisticGlow)" opacity="0.9"/>
    <circle cx="0" cy="0" r="45" fill="none" stroke="#2c3e50" stroke-width="3" opacity="0.7"/>
    
    <!-- Creative efficiency rings -->
    <circle cx="0" cy="0" r="75" fill="none" stroke="#e67e22" stroke-width="3" opacity="0.6" stroke-dasharray="30 15"/>
    <circle cx="0" cy="0" r="95" fill="none" stroke="#f39c12" stroke-width="2" opacity="0.4" stroke-dasharray="20 20"/>
    
    <!-- Artistic neural pathways -->
    <g stroke="#e67e22" stroke-width="5" fill="none" opacity="0.8">
      <path d="M 0,0 Q -50,-25 -100,-50" filter="url(#artisticGlow)"/>
      <path d="M 0,0 Q 50,-25 100,-50" filter="url(#artisticGlow)"/>
      <path d="M 0,0 Q -50,25 -100,50" filter="url(#artisticGlow)"/>
      <path d="M 0,0 Q 50,25 100,50" filter="url(#artisticGlow)"/>
      <path d="M 0,0 L 0,-120" filter="url(#artisticGlow)"/>
      <path d="M 0,0 L 0,120" filter="url(#artisticGlow)"/>
    </g>
    
    <!-- Creative knowledge nodes -->
    <g>
      <!-- Enhanced creative nodes -->
      <circle cx="-100" cy="-50" r="22" fill="url(#optimizedGradient)" filter="url(#artisticGlow)"/>
      <circle cx="-100" cy="-50" r="15" fill="#e74c3c" opacity="0.8"/>
      
      <circle cx="100" cy="-50" r="22" fill="url(#optimizedGradient)" filter="url(#artisticGlow)"/>
      <circle cx="100" cy="-50" r="15" fill="#f39c12" opacity="0.8"/>
      
      <circle cx="-100" cy="50" r="22" fill="url(#optimizedGradient)" filter="url(#artisticGlow)"/>
      <circle cx="-100" cy="50" r="15" fill="#2ecc71" opacity="0.8"/>
      
      <circle cx="100" cy="50" r="22" fill="url(#optimizedGradient)" filter="url(#artisticGlow)"/>
      <circle cx="100" cy="50" r="15" fill="#3498db" opacity="0.8"/>
      
      <!-- Meta-creative nodes -->
      <circle cx="0" cy="-120" r="18" fill="#9b59b6" filter="url(#artisticGlow)" opacity="0.9"/>
      <circle cx="0" cy="120" r="18" fill="#9b59b6" filter="url(#artisticGlow)" opacity="0.9"/>
      
      <!-- Creative enhancement indicators -->
      <g fill="#f1c40f" opacity="0.8">
        <polygon points="-100,-35 -95,-40 -90,-35 -95,-30" filter="url(#artisticGlow)"/>
        <polygon points="100,-35 105,-40 110,-35 105,-30" filter="url(#artisticGlow)"/>
        <polygon points="-100,35 -95,30 -90,35 -95,40" filter="url(#artisticGlow)"/>
        <polygon points="100,35 105,30 110,35 105,40" filter="url(#artisticGlow)"/>
      </g>
    </g>
    
    <!-- Creative improvement arrows -->
    <g stroke="#f39c12" stroke-width="3" fill="#f39c12" opacity="0.8">
      <path d="M -150,-80 L -120,-80" filter="url(#artisticGlow)"/>
      <polygon points="-120,-80 -110,-75 -110,-85" filter="url(#artisticGlow)"/>
      <path d="M 150,-80 L 120,-80" filter="url(#artisticGlow)"/>
      <polygon points="120,-80 110,-75 110,-85" filter="url(#artisticGlow)"/>
    </g>
  </g>
  
  <!-- Creative metrics -->
  <g transform="translate(50,150)">
    <!-- Inspiration meter -->
    <path d="M 0,40 A 40,40 0 0,1 80,40" stroke="#e74c3c" stroke-width="4" fill="none" opacity="0.8" filter="url(#artisticGlow)"/>
    <path d="M 40,40 Q 50,25 60,20" stroke="#f39c12" stroke-width="4" fill="none" opacity="0.9" filter="url(#artisticGlow)"/>
    <circle cx="60" cy="20" r="4" fill="#f39c12" opacity="0.9"/>
  </g>
  
  <g transform="translate(670,150)">
    <!-- Creative growth chart -->
    <path d="M 0,40 Q 20,35 40,25 Q 60,15 80,10" stroke="#2ecc71" stroke-width="4" fill="none" opacity="0.8" stroke-dasharray="8 5" filter="url(#artisticGlow)"/>
    <g fill="#2ecc71" opacity="0.7">
      <circle cx="0" cy="40" r="4"/>
      <circle cx="20" cy="35" r="4"/>
      <circle cx="40" cy="25" r="4"/>
      <circle cx="60" cy="15" r="4"/>
      <circle cx="80" cy="10" r="5" filter="url(#artisticGlow)"/>
    </g>
  </g>
  
  <!-- Creative flow streams -->
  <g stroke="#e67e22" stroke-width="3" fill="none" opacity="0.6">
    <path d="M 0,200 Q 200,180 400,200 Q 600,220 800,200" stroke-dasharray="25 15" filter="url(#artisticGlow)"/>
    <path d="M 0,400 Q 200,380 400,400 Q 600,420 800,400" stroke-dasharray="20 20" filter="url(#artisticGlow)"/>
  </g>
  
  <!-- Creative enhancement particles -->
  <g opacity="0.8">
    <circle cx="250" cy="120" r="4" fill="#e74c3c" filter="url(#artisticGlow)"/>
    <circle cx="550" cy="320" r="4" fill="#f39c12" filter="url(#artisticGlow)"/>
    <circle cx="180" cy="420" r="4" fill="#2ecc71" filter="url(#artisticGlow)"/>
    <circle cx="620" cy="180" r="4" fill="#3498db" filter="url(#artisticGlow)"/>
    <circle cx="320" cy="480" r="4" fill="#9b59b6" filter="url(#artisticGlow)"/>
  </g>
  
  <!-- Artistic corner elements -->
  <g stroke="#8b4513" stroke-width="2" fill="none" opacity="0.4">
    <path d="M 50,50 Q 75,60 100,50 Q 125,70 150,50"/>
    <path d="M 650,550 Q 675,540 700,550 Q 725,530 750,550"/>
    <circle cx="100" cy="60" r="4" fill="#8b4513" opacity="0.5"/>
    <circle cx="700" cy="540" r="4" fill="#8b4513" opacity="0.5"/>
  </g>
  
</svg>